HIERARCHY
ROOT Hips
{
    OFFSET 0.000000 0.000000 0.000000
    CHANNELS 6 Xposition Yposition Zposition Zrotation Xrotation Yrotation
    JOINT Spine
    {
        OFFSET 0.000000 0.070961 0.000000
        CHANNELS 3 Zrotation Xrotation Yrotation
        JOINT Spine1
        {
            OFFSET 0.000000 0.163146 0.000000
            CHANNELS 3 Zrotation Xrotation Yrotation
            JOINT Neck
            {
                OFFSET -0.000000 0.177076 -0.000000
                CHANNELS 3 Zrotation Xrotation Yrotation
                JOINT Head
                {
                    OFFSET 0.000000 0.132020 0.017784
                    CHANNELS 3 Zrotation Xrotation Yrotation
                    End Site
                    {
                        OFFSET 0.000000 0.177845 0.000000
                    }
                }
            }
            JOINT LeftShoulder
            {
                OFFSET 0.035454 0.119338 -0.003753
                CHANNELS 3 Zrotation Xrotation Yrotation
                JOINT LeftArm
                {
                    OFFSET 0.112112 -0.000000 -0.000000
                    CHANNELS 3 Zrotation Xrotation Yrotation
                    JOINT LeftForeArm
                    {
                        OFFSET 0.259410 0.000000 -0.000000
                        CHANNELS 3 Zrotation Xrotation Yrotation
                        JOINT LeftHand
                        {
                            OFFSET 0.218055 0.000000 -0.000000
                            CHANNELS 3 Zrotation Xrotation Yrotation
                            JOINT LeftHandThumb1
                            {
                                OFFSET 0.018585 -0.021119 0.029567
                                CHANNELS 3 Zrotation Xrotation Yrotation
                                JOINT LeftHandThumb2
                                {
                                    OFFSET 0.028070 0.000000 0.000000
                                    CHANNELS 3 Zrotation Xrotation Yrotation
                                    JOINT LeftHandThumb3
                                    {
                                        OFFSET 0.023991 0.000000 -0.000000
                                        CHANNELS 3 Zrotation Xrotation Yrotation
                                        End Site
                                        {
                                            OFFSET 0.021334 0.000000 0.000000
                                        }
                                    }
                                }
                            }
                            JOINT LeftHandIndex1
                            {
                                OFFSET 0.076029 -0.000000 0.029567
                                CHANNELS 3 Zrotation Xrotation Yrotation
                                JOINT LeftHandIndex2
                                {
                                    OFFSET 0.042238 -0.000000 0.000000
                                    CHANNELS 3 Zrotation Xrotation Yrotation
                                    JOINT LeftHandIndex3
                                    {
                                        OFFSET 0.021119 -0.000000 0.000000
                                        CHANNELS 3 Zrotation Xrotation Yrotation
                                        End Site
                                        {
                                            OFFSET 0.018780 0.000000 0.000000
                                        }
                                    }
                                }
                            }
                            JOINT LeftHandMiddle1
                            {
                                OFFSET 0.076029 0.000000 0.009799
                                CHANNELS 3 Zrotation Xrotation Yrotation
                                JOINT LeftHandMiddle2
                                {
                                    OFFSET 0.046462 0.000000 0.000000
                                    CHANNELS 3 Zrotation Xrotation Yrotation
                                    JOINT LeftHandMiddle3
                                    {
                                        OFFSET 0.025343 0.000000 0.000000
                                        CHANNELS 3 Zrotation Xrotation Yrotation
                                        End Site
                                        {
                                            OFFSET 0.022536 0.000000 0.000000
                                        }
                                    }
                                }
                            }
                            JOINT LeftHandRing1
                            {
                                OFFSET 0.071805 0.000000 -0.009799
                                CHANNELS 3 Zrotation Xrotation Yrotation
                                JOINT LeftHandRing2
                                {
                                    OFFSET 0.042238 -0.000000 0.000000
                                    CHANNELS 3 Zrotation Xrotation Yrotation
                                    JOINT LeftHandRing3
                                    {
                                        OFFSET 0.021119 -0.000000 0.000000
                                        CHANNELS 3 Zrotation Xrotation Yrotation
                                        End Site
                                        {
                                            OFFSET 0.018780 0.000000 0.000000
                                        }
                                    }
                                }
                            }
                            JOINT LeftHandPinky1
                            {
                                OFFSET 0.067581 -0.000000 -0.029567
                                CHANNELS 3 Zrotation Xrotation Yrotation
                                JOINT LeftHandPinky2
                                {
                                    OFFSET 0.033790 0.000000 -0.000000
                                    CHANNELS 3 Zrotation Xrotation Yrotation
                                    JOINT LeftHandPinky3
                                    {
                                        OFFSET 0.016895 0.000000 -0.000000
                                        CHANNELS 3 Zrotation Xrotation Yrotation
                                        End Site
                                        {
                                            OFFSET 0.015024 0.000000 0.000000
                                        }
                                    }
                                }
                            }
                        }
                    }
                }
            }
            JOINT RightShoulder
            {
                OFFSET -0.035454 0.119338 -0.003753
                CHANNELS 3 Zrotation Xrotation Yrotation
                JOINT RightArm
                {
                    OFFSET -0.112112 0.000000 0.000000
                    CHANNELS 3 Zrotation Xrotation Yrotation
                    JOINT RightForeArm
                    {
                        OFFSET -0.259410 0.000000 0.000000
                        CHANNELS 3 Zrotation Xrotation Yrotation
                        JOINT RightHand
                        {
                            OFFSET -0.218055 0.000000 0.000000
                            CHANNELS 3 Zrotation Xrotation Yrotation
                            JOINT RightHandThumb1
                            {
                                OFFSET -0.018585 -0.021119 0.029567
                                CHANNELS 3 Zrotation Xrotation Yrotation
                                JOINT RightHandThumb2
                                {
                                    OFFSET -0.028070 0.000000 0.000000
                                    CHANNELS 3 Zrotation Xrotation Yrotation
                                    JOINT RightHandThumb3
                                    {
                                        OFFSET -0.023991 -0.000000 -0.000000
                                        CHANNELS 3 Zrotation Xrotation Yrotation
                                        End Site
                                        {
                                            OFFSET -0.021334 0.000000 0.000000
                                        }
                                    }
                                }
                            }
                            JOINT RightHandIndex1
                            {
                                OFFSET -0.076029 -0.000000 0.029567
                                CHANNELS 3 Zrotation Xrotation Yrotation
                                JOINT RightHandIndex2
                                {
                                    OFFSET -0.042238 0.000000 0.000000
                                    CHANNELS 3 Zrotation Xrotation Yrotation
                                    JOINT RightHandIndex3
                                    {
                                        OFFSET -0.021119 -0.000000 0.000000
                                        CHANNELS 3 Zrotation Xrotation Yrotation
                                        End Site
                                        {
                                            OFFSET -0.018780 0.000000 0.000000
                                        }
                                    }
                                }
                            }
                            JOINT RightHandMiddle1
                            {
                                OFFSET -0.076029 -0.000000 0.009799
                                CHANNELS 3 Zrotation Xrotation Yrotation
                                JOINT RightHandMiddle2
                                {
                                    OFFSET -0.046462 -0.000000 0.000000
                                    CHANNELS 3 Zrotation Xrotation Yrotation
                                    JOINT RightHandMiddle3
                                    {
                                        OFFSET -0.025343 0.000000 0.000000
                                        CHANNELS 3 Zrotation Xrotation Yrotation
                                        End Site
                                        {
                                            OFFSET -0.022536 0.000000 0.000000
                                        }
                                    }
                                }
                            }
                            JOINT RightHandRing1
                            {
                                OFFSET -0.071805 0.000000 -0.009799
                                CHANNELS 3 Zrotation Xrotation Yrotation
                                JOINT RightHandRing2
                                {
                                    OFFSET -0.042238 0.000000 0.000000
                                    CHANNELS 3 Zrotation Xrotation Yrotation
                                    JOINT RightHandRing3
                                    {
                                        OFFSET -0.021119 -0.000000 0.000000
                                        CHANNELS 3 Zrotation Xrotation Yrotation
                                        End Site
                                        {
                                            OFFSET -0.018780 0.000000 0.000000
                                        }
                                    }
                                }
                            }
                            JOINT RightHandPinky1
                            {
                                OFFSET -0.067581 -0.000000 -0.029567
                                CHANNELS 3 Zrotation Xrotation Yrotation
                                JOINT RightHandPinky2
                                {
                                    OFFSET -0.033791 0.000000 0.000000
                                    CHANNELS 3 Zrotation Xrotation Yrotation
                                    JOINT RightHandPinky3
                                    {
                                        OFFSET -0.016895 -0.000000 0.000000
                                        CHANNELS 3 Zrotation Xrotation Yrotation
                                        End Site
                                        {
                                            OFFSET -0.015024 0.000000 0.000000
                                        }
                                    }
                                }
                            }
                        }
                    }
                }
            }
        }
    }
    JOINT LeftUpLeg
    {
        OFFSET 0.088922 -0.000000 0.000000
        CHANNELS 3 Zrotation Xrotation Yrotation
        JOINT LeftLeg
        {
            OFFSET 0.000000 -0.441738 -0.000000
            CHANNELS 3 Zrotation Xrotation Yrotation
            JOINT LeftFoot
            {
                OFFSET 0.000000 -0.332005 0.000000
                CHANNELS 3 Zrotation Xrotation Yrotation
                JOINT LeftToeBase
                {
                    OFFSET 0.000000 -0.057800 0.133384
                    CHANNELS 3 Zrotation Xrotation Yrotation
                    End Site
                    {
                        OFFSET 0.000000 0.000000 0.035569
                    }
                }
            }
        }
    }
    JOINT RightUpLeg
    {
        OFFSET -0.088922 0.000000 -0.000000
        CHANNELS 3 Zrotation Xrotation Yrotation
        JOINT RightLeg
        {
            OFFSET 0.000000 -0.441738 0.000000
            CHANNELS 3 Zrotation Xrotation Yrotation
            JOINT RightFoot
            {
                OFFSET -0.000000 -0.332005 0.000000
                CHANNELS 3 Zrotation Xrotation Yrotation
                JOINT RightToeBase
                {
                    OFFSET 0.000000 -0.057800 0.133384
                    CHANNELS 3 Zrotation Xrotation Yrotation
                    End Site
                    {
                        OFFSET 0.000000 0.000000 0.035569
                    }
                }
            }
        }
    }
}
MOTION
Frames:    4
Frame Time:    0.008333
-1.551363    0.781433    -1.284894    4.479961    -3.148965    -46.661304    -0.368395    3.834030    4.633368    -1.841962    3.832135    4.731872    -10.170841    6.991589    30.967592    -10.170835    6.991584    30.967583    -1.310483    2.894017    6.230856    -44.922405    -5.481098    -32.717335    5.487250    2.123488    -68.907669    61.062813    6.112090    3.301834    47.448219    38.866398    -34.355049    -35.000019    -0.000006    -0.000004    -0.000000    0.000000    -0.000000    0.000007    9.999991    -0.000003    -0.000000    0.000000    -0.000000    -0.000000    0.000000    -0.000000    -0.000000    0.000000    -0.000000    -0.000000    0.000000    -0.000000    -0.000000    0.000000    -0.000000    -0.000000    0.000000    -0.000000    -0.000000    0.000000    -0.000000    -0.000000    0.000000    -0.000000    0.000004    -9.999988    0.000008    -0.000000    0.000000    -0.000000    -0.000000    0.000000    -0.000000    -11.948714    8.105224    -16.067682    52.316311    24.858879    38.522297    1.493312    0.053372    92.046631    -4.119437    0.150416    -2.295410    -47.448208    38.866394    34.355045    35.000023    0.000001    0.000004    -0.000000    0.000000    -0.000000    0.000002    9.999990    -0.000000    -0.000000    0.000000    -0.000000    -0.000000    0.000000    -0.000000    -0.000000    0.000000    -0.000000    -0.000000    0.000000    -0.000000    -0.000000    0.000000    -0.000000    -0.000000    0.000000    -0.000000    -0.000000    0.000000    -0.000000    -0.000000    0.000000    -0.000000    0.000004    -9.999992    0.000003    -0.000000    0.000000    -0.000000    -0.000000    0.000000    -0.000000    20.295876    -23.651785    18.749777    -0.000002    52.439804    0.000001    -51.451115    -7.359632    31.003632    -0.000004    -3.179950    0.000000    -19.798548    -6.127888    -6.702714    0.000001    35.507175    -0.000007    19.032223    -34.686821    -17.190968    -0.000000    -3.084466    0.000006    
-1.548821    0.780288    -1.283073    4.456594    -2.809800    -46.605854    -0.378734    4.049291    4.453490    -1.893664    4.047176    4.560433    -10.211323    6.721555    30.903419    -10.211324    6.721561    30.903419    -0.992904    2.673276    5.676601    -44.047710    -6.266965    -32.893990    4.591585    2.139341    -65.069992    60.966309    5.631445    3.059936    47.448215    38.866417    -34.355045    -35.000031    0.000000    -0.000006    -0.000000    0.000000    -0.000000    0.000002    10.000003    0.000014    -0.000000    0.000000    -0.000000    -0.000000    0.000000    -0.000000    -0.000000    0.000000    -0.000000    -0.000000    0.000000    -0.000000    -0.000000    0.000000    -0.000000    -0.000000    0.000000    -0.000000    -0.000000    0.000000    -0.000000    -0.000000    0.000000    -0.000000    0.000000    -9.999990    0.000004    -0.000000    0.000000    -0.000000    -0.000000    0.000000    -0.000000    -12.016619    7.316364    -15.782052    51.539902    22.772186    38.627899    1.594879    0.017591    90.631470    -4.523382    0.175363    -2.417617    -47.448208    38.866394    34.355045    35.000023    -0.000003    -0.000003    -0.000000    0.000000    -0.000000    0.000001    9.999993    0.000003    -0.000000    0.000000    -0.000000    -0.000000    0.000000    -0.000000    -0.000000    0.000000    -0.000000    -0.000000    0.000000    -0.000000    -0.000000    0.000000    -0.000000    -0.000000    0.000000    -0.000000    -0.000000    0.000000    -0.000000    -0.000000    0.000000    -0.000000    0.000000    -9.999997    0.000000    -0.000000    0.000000    -0.000000    -0.000000    0.000000    -0.000000    20.661095    -24.310219    19.041054    0.000002    53.191635    0.000003    -51.828022    -7.365503    29.903381    0.000001    -3.210163    0.000001    -19.817558    -6.405900    -7.026018    -0.000002    35.568069    0.000006    19.153692    -34.793354    -17.011086    -0.000000    -3.113633    0.000007    
-1.546234    0.778938    -1.281055    4.413688    -2.439690    -46.469284    -0.384282    4.248293    4.253656    -1.921409    4.246006    4.367503    -10.207892    6.499802    30.850790    -10.207892    6.499796    30.850782    -0.667925    2.448066    5.078053    -43.098579    -7.023986    -33.048435    3.711918    2.059145    -61.020344    60.829018    5.089719    2.786556    47.448219    38.866398    -34.355045    -35.000023    0.000003    0.000003    -0.000000    0.000000    -0.000000    0.000000    9.999990    -0.000002    -0.000000    0.000000    -0.000000    -0.000000    0.000000    -0.000000    -0.000000    0.000000    -0.000000    -0.000000    0.000000    -0.000000    -0.000000    0.000000    -0.000000    -0.000000    0.000000    -0.000000    -0.000000    0.000000    -0.000000    -0.000000    0.000000    -0.000000    0.000004    -9.999991    0.000010    -0.000000    0.000000    -0.000000    -0.000000    0.000000    -0.000000    -12.091377    6.515002    -15.418406    50.676971    20.560308    38.787975    1.694286    -0.023986    89.188873    -4.942980    0.204981    -2.565210    -47.448196    38.866383    34.355042    35.000023    -0.000002    0.000006    -0.000000    0.000000    -0.000000    -0.000004    9.999989    0.000008    -0.000000    0.000000    -0.000000    -0.000000    0.000000    -0.000000    -0.000000    0.000000    -0.000000    -0.000000    0.000000    -0.000000    -0.000000    0.000000    -0.000000    -0.000000    0.000000    -0.000000    -0.000000    0.000000    -0.000000    -0.000000    0.000000    -0.000000    0.000004    -9.999999    0.000009    -0.000000    0.000000    -0.000000    -0.000000    0.000000    -0.000000    21.080687    -25.035351    19.450098    -0.000003    53.906120    -0.000002    -52.194378    -7.277587    28.930868    -0.000000    -3.236072    0.000001    -19.839207    -6.651119    -7.351671    -0.000002    35.674568    -0.000002    19.279688    -34.909508    -16.746679    -0.000000    -3.182386    -0.000003    
-1.542903    0.777115    -1.280193    4.535441    -1.660119    -46.021946    -0.354406    4.131438    4.028295    -1.772027    4.129547    4.130413    -10.138768    6.619916    30.636345    -10.138770    6.619925    30.636349    -0.767708    2.865318    5.017041    -41.812355    -7.618918    -34.899086    2.438298    1.688292    -55.321007    61.278278    3.469317    1.865457    47.448204    38.866394    -34.355045    -35.000015    0.000000    -0.000012    -0.000000    0.000000    -0.000000    -0.000002    9.999986    -0.000011    -0.000000    0.000000    -0.000000    -0.000000    0.000000    -0.000000    -0.000000    0.000000    -0.000000    -0.000000    0.000000    -0.000000    -0.000000    0.000000    -0.000000    -0.000000    0.000000    -0.000000    -0.000000    0.000000    -0.000000    -0.000000    0.000000    -0.000000    -0.000003    -9.999993    0.000002    -0.000000    0.000000    -0.000000    -0.000000    0.000000    -0.000000    -11.571907    6.115897    -14.585526    49.080566    17.658384    39.006092    1.896161    -0.074874    87.739510    -6.364088    0.287294    -2.745120    -47.448189    38.866394    34.355030    35.000023    0.000002    -0.000009    -0.000000    0.000000    -0.000000    -0.000005    9.999992    -0.000006    -0.000000    0.000000    -0.000000    -0.000000    0.000000    -0.000000    -0.000000    0.000000    -0.000000    -0.000000    0.000000    -0.000000    -0.000000    0.000000    -0.000000    -0.000000    0.000000    -0.000000    -0.000000    0.000000    -0.000000    -0.000000    0.000000    -0.000000    0.000001    -9.999990    -0.000004    -0.000000    0.000000    -0.000000    -0.000000    0.000000    -0.000000    21.921690    -26.518167    20.140606    0.000001    55.047298    -0.000002    -52.571701    -6.503828    27.827112    0.000003    -3.201884    0.000001    -19.723139    -7.361507    -8.078022    -0.000004    36.109768    0.000008    19.602516    -35.126694    -16.337000    0.000000    -3.368442    -0.000002    
